<svg width="240" height="51" viewBox="0 0 240 51" fill="none" xmlns="http://www.w3.org/2000/svg">
<g clip-path="url(#clip0_40_25)">
<path d="M27.1442 26.3128H17.8121C17.8624 27.1029 18.0762 27.6925 18.4536 28.0816C18.6433 28.2739 18.8695 28.4245 19.1182 28.524C19.3669 28.6236 19.633 28.67 19.8999 28.6605C20.2708 28.6799 20.6386 28.5824 20.9535 28.3811C21.2684 28.1798 21.5153 27.8844 21.6607 27.5349H26.9179C26.7077 28.5133 26.2722 29.4262 25.6476 30.1977C25.0022 30.9858 24.1876 31.6109 23.2674 32.0243C22.2708 32.4796 21.1894 32.7078 20.098 32.6933C18.8067 32.7187 17.5302 32.4089 16.3878 31.7928C15.3162 31.2036 14.4339 30.3102 13.8472 29.22C13.2341 28.1052 12.9281 26.7931 12.9291 25.2837C12.9302 23.7744 13.232 22.4666 13.8347 21.3603C14.4179 20.2752 15.296 19.3861 16.3626 18.8004C17.5137 18.1832 18.7986 17.8735 20.098 17.8999C21.3823 17.8747 22.6526 18.1752 23.7956 18.7747C24.8539 19.344 25.7278 20.2154 26.311 21.2831C26.9147 22.3733 27.2166 23.6554 27.2166 25.1294C27.2176 25.525 27.1934 25.9204 27.1442 26.3128ZM22.1889 23.8687C22.2012 23.5966 22.1533 23.3251 22.0488 23.0745C21.9443 22.824 21.7858 22.6008 21.5852 22.4215C21.1621 22.063 20.6252 21.8754 20.076 21.8941C19.5381 21.8714 19.0106 22.0497 18.5919 22.3958C18.2052 22.7303 17.9536 23.2234 17.8373 23.8751L22.1889 23.8687Z" fill="#222831"/>
<path d="M51.858 19.5979C52.8715 20.6967 53.3788 22.1975 53.3798 24.1003V32.5132H48.4496V24.7627C48.4496 23.9909 48.24 23.3906 47.8208 22.9618C47.4015 22.533 46.8314 22.3186 46.1103 22.3186C45.3882 22.3186 44.818 22.533 44.3998 22.9618C43.9817 23.3906 43.772 23.9909 43.771 24.7627V32.5132H38.8408V24.7627C38.8408 23.9909 38.6354 23.3906 38.2246 22.9618C37.8137 22.533 37.2477 22.3186 36.5267 22.3186C35.7878 22.3186 35.2113 22.533 34.7973 22.9618C34.3833 23.3906 34.1737 23.9909 34.1685 24.7627V32.5132H29.232V18.08H34.1622V19.9839C34.6055 19.3601 35.1875 18.853 35.8601 18.5045C36.6053 18.1243 37.4296 17.9345 38.2623 17.9514C39.2324 17.9358 40.19 18.1774 41.0418 18.6525C41.8479 19.1093 42.5141 19.7862 42.9661 20.6077C43.471 19.8172 44.152 19.1603 44.9532 18.691C45.7778 18.2011 46.7163 17.9478 47.6699 17.9578C49.4464 17.9535 50.8424 18.5002 51.858 19.5979Z" fill="#222831"/>
<path d="M71.291 28.0366V32.3331H69.1529C65.5485 32.3331 63.7458 30.5064 63.7448 26.8531V22.0935H62.0155V17.8999H63.7448V14.401H68.7017V17.8999H71.2674V22.0935H68.7017V26.9303C68.7017 27.3259 68.7897 27.6089 68.9658 27.7793C69.1419 27.9514 69.4374 28.0366 69.8588 28.0366H71.291Z" fill="#222831"/>
<path d="M73.9447 15.8289C73.6903 15.5995 73.4881 15.316 73.3523 14.9982C73.2165 14.6804 73.1504 14.3361 73.1587 13.9893C73.1497 13.6369 73.2152 13.2865 73.3509 12.9624C73.4866 12.6382 73.6891 12.3479 73.9447 12.1112C74.4688 11.6149 75.1689 11.3662 76.0451 11.3651C76.9003 11.3651 77.592 11.6138 78.1203 12.1112C78.3784 12.3466 78.5836 12.6363 78.7218 12.9605C78.8599 13.2847 78.9277 13.6357 78.9205 13.9893C78.9287 14.3361 78.8626 14.6804 78.7268 14.9982C78.591 15.316 78.3888 15.5995 78.1344 15.8289C77.6104 16.3177 76.9186 16.5621 76.0592 16.5621C75.1778 16.5621 74.4729 16.3177 73.9447 15.8289ZM78.485 17.8999V32.3331H73.5548V17.8999H78.485Z" fill="#222831"/>
<path d="M81.3651 21.3603C81.8981 20.2896 82.696 19.3805 83.6793 18.7232C84.6178 18.0968 85.7154 17.7659 86.8361 17.7713C88.4784 17.7713 89.7529 18.303 90.6595 19.3664V17.8999H95.585V39.2345H90.6595V30.6351C89.6198 31.8871 88.337 32.5132 86.8109 32.5132C85.6937 32.5199 84.598 32.1984 83.6541 31.587C82.6717 30.9492 81.8763 30.0513 81.3525 28.9885C80.7657 27.8103 80.4704 26.5029 80.4926 25.1808C80.4719 23.8533 80.7716 22.5411 81.3651 21.3603ZM89.8671 22.9039C89.3962 22.4229 88.7594 22.1503 88.0938 22.145C87.762 22.1485 87.4343 22.2197 87.1298 22.3545C86.8253 22.4892 86.5501 22.6848 86.3204 22.9297C85.7964 23.4539 85.5344 24.2042 85.5344 25.1808C85.5344 26.1574 85.7964 26.8906 86.3204 27.3805C86.8001 27.8528 87.4406 28.1158 88.1064 28.1138C88.4371 28.1107 88.7639 28.0409 89.0682 27.9084C89.3725 27.776 89.6483 27.5835 89.8797 27.3419C90.4038 26.8274 90.6658 26.0813 90.6658 25.1036C90.6616 24.1442 90.3954 23.411 89.8671 22.9039Z" fill="#222831"/>
<path d="M112.845 17.8999V32.3331H107.89V30.2749C107.454 30.9435 106.859 31.488 106.161 31.8571C105.376 32.2717 104.503 32.4795 103.62 32.4617C101.976 32.4617 100.68 31.9086 99.7338 30.8023C98.7874 29.696 98.3157 28.1909 98.3189 26.2871V17.8999H103.224V25.6439C103.224 26.4672 103.438 27.1147 103.865 27.5863C104.082 27.8222 104.346 28.0074 104.639 28.1295C104.932 28.2516 105.247 28.3077 105.563 28.2938C106.283 28.2938 106.853 28.058 107.274 27.5863C107.694 27.1147 107.904 26.4672 107.903 25.6439V17.8999H112.845Z" fill="#222831"/>
<path d="M129.071 26.1327H119.737C119.788 26.9217 120.002 27.5113 120.379 27.9015C120.569 28.0938 120.795 28.2444 121.044 28.344C121.292 28.4435 121.558 28.4899 121.825 28.4804C122.196 28.4998 122.564 28.4023 122.879 28.201C123.194 27.9997 123.441 27.7043 123.586 27.3548H128.843C128.633 28.3332 128.198 29.2461 127.573 30.0176C126.928 30.8029 126.114 31.4258 125.196 31.8378C124.199 32.293 123.118 32.5213 122.026 32.5067C120.735 32.5322 119.459 32.2224 118.316 31.6063C117.245 31.0171 116.362 30.1237 115.776 29.0335C115.163 27.9187 114.857 26.6066 114.858 25.0972C114.859 23.5879 115.16 22.28 115.763 21.1738C116.346 20.0887 117.224 19.1996 118.291 18.6139C119.445 18.026 120.716 17.7179 122.005 17.7134C123.294 17.7089 124.566 18.0083 125.724 18.5881C126.782 19.1575 127.656 20.0289 128.24 21.0966C128.843 22.1868 129.145 23.4689 129.145 24.9428C129.146 25.3407 129.121 25.7382 129.071 26.1327ZM124.116 23.6886C124.128 23.4165 124.08 23.145 123.976 22.8945C123.871 22.6439 123.713 22.4207 123.512 22.2414C123.088 21.8791 122.549 21.6891 121.997 21.7076C121.459 21.6848 120.931 21.8632 120.513 22.2093C120.126 22.5437 119.874 23.0369 119.758 23.6886H124.116Z" fill="#222831"/>
<path d="M161.435 23.9411V51H156.513V42.206H156.503V32.2511V24.61C156.503 23.8382 156.293 23.2379 155.874 22.8091C155.455 22.3803 154.885 22.1659 154.164 22.1659C153.442 22.1659 152.871 22.3803 152.453 22.8091C152.035 23.2379 151.825 23.8382 151.824 24.61V32.354H146.896V24.61C146.896 23.8382 146.69 23.2379 146.28 22.8091C145.869 22.3803 145.303 22.1659 144.582 22.1659C143.848 22.1659 143.272 22.3803 142.852 22.8091C142.433 23.2379 142.224 23.8382 142.224 24.61V32.354H137.287V17.9208H142.217V19.8247C142.66 19.2004 143.242 18.6933 143.915 18.3453C144.66 17.9643 145.485 17.7745 146.317 17.7922C147.287 17.7762 148.245 18.0171 149.097 18.4917C149.903 18.948 150.57 19.6251 151.021 20.447C151.526 19.656 152.207 18.9991 153.008 18.5303C153.833 18.0403 154.771 17.787 155.725 17.797C157.507 17.797 158.903 18.3459 159.913 19.4436C160.923 20.5413 161.431 22.0405 161.435 23.9411Z" fill="#222831"/>
<path d="M177.532 26.1536H168.2C168.25 26.9426 168.464 27.5322 168.841 27.9224C169.031 28.1147 169.257 28.2652 169.506 28.3647C169.755 28.4643 170.021 28.5107 170.287 28.5013C170.658 28.521 171.026 28.4235 171.341 28.2222C171.656 28.0209 171.903 27.7253 172.048 27.3757H177.305C177.096 28.3543 176.66 29.2674 176.035 30.0385C175.392 30.8309 174.578 31.4604 173.658 31.878C172.661 32.3332 171.58 32.5615 170.489 32.5469C169.197 32.5722 167.921 32.2624 166.778 31.6465C165.707 31.0569 164.825 30.1635 164.238 29.0737C163.626 27.9599 163.32 26.6478 163.32 25.1374C163.32 23.627 163.622 22.3192 164.225 21.214C164.809 20.1289 165.687 19.2398 166.753 18.6541C167.907 18.0662 169.178 17.7581 170.467 17.7536C171.756 17.7491 173.029 18.0485 174.186 18.6283C175.245 19.1972 176.119 20.0688 176.702 21.1368C177.305 22.2248 177.607 23.5069 177.607 24.983C177.607 25.3745 177.581 25.7655 177.532 26.1536ZM172.576 23.7095C172.589 23.4374 172.541 23.1659 172.436 22.9154C172.332 22.6648 172.173 22.4416 171.973 22.2624C171.55 21.9031 171.013 21.7154 170.464 21.7349C169.926 21.7123 169.398 21.8906 168.979 22.2366C168.595 22.5711 168.343 23.0642 168.225 23.716L172.576 23.7095Z" fill="#222831"/>
<path d="M179.607 21.214C180.081 20.1641 180.835 19.2723 181.783 18.6412C182.699 18.0432 183.765 17.7303 184.852 17.7407C185.695 17.7257 186.529 17.9245 187.279 18.3196C187.967 18.6813 188.545 19.2284 188.952 19.9019V13.3092H193.907V32.3475H188.952V30.3472C188.56 31.0224 187.994 31.5742 187.317 31.9423C186.549 32.3521 185.692 32.5557 184.826 32.5341C183.743 32.5463 182.681 32.2332 181.77 31.6336C180.825 30.9972 180.076 30.101 179.607 29.048C179.083 27.9256 178.821 26.6178 178.821 25.1245C178.821 23.6313 179.083 22.3277 179.607 21.214ZM188.235 22.9377C187.998 22.6865 187.714 22.4866 187.4 22.3496C187.086 22.2126 186.749 22.1414 186.407 22.1402C186.066 22.139 185.728 22.2078 185.413 22.3426C185.099 22.4774 184.814 22.6754 184.575 22.9248C184.09 23.449 183.846 24.1823 183.845 25.1245C183.844 26.0668 184.088 26.8 184.575 27.3242C184.809 27.5801 185.092 27.7843 185.406 27.9242C185.721 28.0642 186.059 28.137 186.402 28.1383C186.745 28.1395 187.084 28.069 187.399 27.9312C187.714 27.7935 187.999 27.5913 188.235 27.3371C188.73 26.8065 188.978 26.069 188.977 25.1245C188.977 24.1983 188.729 23.4694 188.235 22.9377Z" fill="#222831"/>
<path d="M197.114 15.8498C196.86 15.6205 196.658 15.3369 196.522 15.0191C196.386 14.7013 196.32 14.357 196.328 14.0102C196.319 13.6578 196.385 13.3074 196.52 12.9833C196.656 12.6591 196.859 12.3688 197.114 12.1321C197.638 11.6347 198.338 11.386 199.214 11.386C200.07 11.386 200.761 11.6347 201.29 12.1321C201.545 12.3688 201.748 12.6591 201.883 12.9833C202.019 13.3074 202.085 13.6578 202.076 14.0102C202.084 14.357 202.018 14.7013 201.882 15.0191C201.746 15.3369 201.544 15.6205 201.29 15.8498C200.766 16.3386 200.074 16.583 199.214 16.583C198.341 16.583 197.641 16.3386 197.114 15.8498ZM201.654 17.9208V32.354H196.724V17.9208H201.654Z" fill="#222831"/>
<path d="M204.459 21.214C204.931 20.1666 205.681 19.2754 206.622 18.6412C207.533 18.0419 208.596 17.7288 209.678 17.7407C210.552 17.7171 211.418 17.9207 212.194 18.3325C212.871 18.7011 213.437 19.2528 213.829 19.9276V17.9208H218.759V32.354H213.829V30.3472C213.435 31.0247 212.864 31.577 212.181 31.9423C211.409 32.351 210.548 32.5545 209.678 32.5341C208.596 32.5467 207.533 32.2336 206.622 31.6336C205.678 30.9972 204.928 30.101 204.459 29.048C203.935 27.9256 203.673 26.6178 203.673 25.1245C203.673 23.6313 203.935 22.3277 204.459 21.214ZM213.087 22.9377C212.85 22.6865 212.566 22.4866 212.252 22.3496C211.938 22.2126 211.601 22.1414 211.26 22.1402C210.918 22.139 210.58 22.2078 210.266 22.3426C209.951 22.4774 209.666 22.6754 209.427 22.9248C208.941 23.449 208.697 24.1823 208.697 25.1245C208.697 26.0668 208.941 26.8 209.427 27.3242C209.658 27.5858 209.942 27.7931 210.259 27.9319C210.576 28.0707 210.919 28.1376 211.263 28.1282C211.606 28.134 211.945 28.0653 212.26 27.9267C212.574 27.7881 212.856 27.5827 213.087 27.3242C213.582 26.7936 213.829 26.0561 213.829 25.1117C213.829 24.1941 213.582 23.4694 213.087 22.9377Z" fill="#222831"/>
<path d="M222.18 31.8266C221.924 31.5932 221.721 31.3053 221.585 30.9831C221.449 30.6608 221.384 30.3121 221.394 29.9613C221.385 29.6088 221.451 29.2585 221.586 28.9344C221.722 28.6102 221.924 28.3199 222.18 28.0832C222.704 27.5858 223.404 27.3371 224.28 27.3371C225.136 27.3371 225.827 27.5858 226.356 28.0832C226.611 28.3199 226.814 28.6102 226.949 28.9344C227.085 29.2585 227.151 29.6088 227.142 29.9613C227.149 30.3098 227.083 30.6559 226.947 30.9757C226.812 31.2955 226.61 31.5814 226.356 31.8137C225.832 32.3122 225.14 32.5609 224.28 32.5598C223.408 32.5598 222.708 32.3154 222.18 31.8266Z" fill="#F37121"/>
<path d="M0 0V51H151.552V45.9542H4.93174V5.0442H235.068V45.9542H166.367V51H240V0H0Z" fill="#222831"/>
</g>
<defs>
<clipPath id="clip0_40_25">
<rect width="240" height="51" fill="white"/>
</clipPath>
</defs>
</svg>
